<svg xmlns="http://www.w3.org/2000/svg" viewBox="0 0 64 64" role="img" aria-label="Happy Home Gas favicon">
  <rect width="64" height="64" rx="12" fill="#0f7b8a"/>
  <path fill="#fff" d="M20 50V20c0-4.4 3.6-8 8-8h12c4.4 0 8 3.6 8 8v30h-6V20c0-1.1-.9-2-2-2H28c-1.1 0-2 .9-2 2v30h-6Z"/>
  <path fill="#f26a2e" d="M33.5 45c6.2 0 10.5-4.1 10.5-10 0-7-7.1-10.2-9.4-17.1-.2-.7-1.2-.8-1.6-.2-3.8 5.2-12 11.7-12 19.3 0 5 4.5 8 12.5 8Z"/>
  <path fill="#ffd166" d="M34 41c3.2 0 5.4-2.1 5.4-5.1 0-3.6-3.6-5.3-4.9-8.9-.1-.4-.6-.4-.8-.1-2 2.7-6.2 6.1-6.2 10 0 2.6 2.3 4.1 6.5 4.1Z"/>
  <path fill="#fff" d="M48 24h6v8h-6v-8Z"/>
</svg>
